<svg xmlns="http://www.w3.org/2000/svg" width="1024" height="1024" viewBox="220 120 580 720">
<g>
<path d="M 337.00 760.96 C334.65,761.94 328.79,762.54 319.19,762.76 L 304.89 763.10 L 306.06 751.50 L 300.44 748.00 C288.61,740.63 269.04,719.99 257.28,702.49 C234.74,668.91 223.09,627.98 223.02,582.02 L 223.00 572.55 L 226.73 579.02 C231.54,587.37 246.53,602.35 255.01,607.28 C261.74,611.19 268.58,613.75 269.60,612.74 C269.92,612.42 267.25,608.08 263.68,603.10 C243.01,574.32 232.69,546.67 230.00,512.93 C228.23,490.66 230.63,469.17 237.10,449.50 C240.13,440.29 250.50,418.29 253.72,414.25 C255.48,412.04 255.51,412.15 255.16,419.85 C254.29,438.89 261.30,460.20 273.28,474.96 C278.25,481.07 292.27,494.00 296.24,496.13 C297.57,496.84 296.66,494.30 292.97,486.94 C275.17,451.47 273.40,416.43 287.54,379.74 C301.55,343.39 329.75,310.19 368.26,284.67 C379.09,277.49 400.13,266.22 405.95,264.47 C408.39,263.74 408.39,263.76 406.70,266.34 C395.90,282.81 389.33,296.86 385.48,311.68 C381.98,325.14 379.67,347.01 381.75,347.00 C382.16,346.99 383.31,345.03 384.29,342.64 C388.71,331.89 402.19,315.02 417.62,300.92 C441.98,278.65 447.06,273.69 455.01,264.44 C477.79,237.90 488.10,213.97 489.66,184.00 C490.26,172.37 488.48,158.58 485.09,148.75 C484.00,145.59 483.53,143.00 484.05,143.00 C484.57,143.00 485.00,143.85 485.00,144.88 C485.00,145.92 486.12,147.51 487.50,148.41 C489.04,149.42 490.00,150.99 490.00,152.49 C490.00,154.25 490.42,154.78 491.49,154.36 C492.32,154.05 492.74,153.39 492.44,152.90 C492.13,152.40 492.58,152.00 493.44,152.00 C494.30,152.00 495.00,151.52 495.00,150.94 C495.00,150.36 494.48,150.20 493.85,150.60 C493.12,151.04 492.96,150.87 493.41,150.14 C493.81,149.49 494.58,149.24 495.11,149.57 C496.23,150.26 499.00,148.25 499.00,146.76 C499.00,146.21 498.25,146.37 497.34,147.13 C495.82,148.38 495.80,148.31 497.09,146.24 C497.86,145.00 498.65,144.44 498.83,145.00 C499.02,145.56 499.56,145.77 500.03,145.48 C500.50,145.19 501.70,145.80 502.69,146.84 C503.69,147.87 506.43,150.09 508.79,151.78 C511.20,153.50 512.61,155.12 512.02,155.49 C511.44,155.85 511.27,156.63 511.64,157.22 C512.03,157.86 511.84,158.02 511.18,157.61 C510.55,157.22 509.02,157.40 507.77,158.01 C505.59,159.06 505.58,159.05 507.44,157.56 C508.51,156.70 509.07,155.94 508.69,155.88 C508.31,155.81 507.57,155.69 507.05,155.62 C506.53,155.56 505.52,154.85 504.80,154.05 C503.68,152.79 503.74,152.78 505.26,153.93 C506.83,155.12 506.99,155.02 506.69,153.08 C506.51,151.88 504.89,150.01 503.10,148.92 C501.31,147.82 500.17,147.51 500.58,148.22 C500.99,148.92 500.95,149.17 500.50,148.76 C499.59,147.93 497.00,149.72 497.00,151.18 C497.00,151.70 497.56,151.78 498.25,151.37 C499.10,150.86 499.06,151.16 498.13,152.31 C496.57,154.23 495.51,154.60 496.60,152.85 C497.05,152.11 496.87,151.96 496.10,152.44 C495.44,152.85 495.06,153.67 495.25,154.25 C495.73,155.69 499.00,156.11 499.00,154.74 C499.00,154.14 500.05,154.63 501.32,155.83 C502.60,157.04 503.91,157.76 504.23,157.43 C504.55,157.11 505.11,157.78 505.48,158.92 C506.18,161.14 506.30,161.18 512.70,161.25 C516.93,161.29 518.76,162.92 517.31,165.34 C516.93,165.98 517.39,165.87 518.33,165.11 C519.82,163.90 519.97,163.92 519.45,165.26 C519.13,166.10 519.41,167.14 520.09,167.55 C520.94,168.08 521.05,167.89 520.46,166.90 C519.74,165.71 519.87,165.71 521.30,166.86 C522.22,167.61 522.73,168.62 522.44,169.10 C522.14,169.58 522.59,169.71 523.45,169.38 C524.30,169.05 525.00,168.46 525.00,168.07 C525.00,167.09 520.60,163.02 519.44,162.93 C518.92,162.89 517.15,161.24 515.51,159.26 C509.26,151.77 516.69,157.91 527.64,169.31 C544.94,187.30 556.91,206.32 564.31,227.58 C570.54,245.50 571.50,251.46 571.48,272.00 C571.46,291.81 570.25,299.24 564.47,315.29 C559.59,328.80 562.18,326.27 571.13,308.78 C584.10,283.43 596.85,268.32 615.00,256.77 C623.23,251.54 640.58,244.34 642.97,245.17 C643.49,245.35 642.51,247.75 640.78,250.50 C632.80,263.18 629.35,278.27 630.29,296.30 C631.03,310.28 633.18,318.62 640.82,337.00 C647.46,352.99 650.86,364.89 651.72,375.22 C652.03,378.95 652.39,382.00 652.52,382.00 C654.09,382.00 661.81,377.86 666.65,374.42 C686.43,360.35 695.09,333.65 689.20,304.85 L 687.43 296.20 L 691.46 298.99 C697.20,302.96 708.89,315.38 713.94,322.87 C726.04,340.81 732.77,361.33 733.70,383.13 L 734.29 396.77 L 741.89 397.36 C746.08,397.69 756.91,398.26 765.96,398.63 L 782.42 399.30 L 778.38 402.90 C776.16,404.88 766.05,413.88 755.92,422.89 C745.79,431.91 736.50,440.24 735.27,441.39 C733.26,443.29 732.95,444.96 732.09,458.50 C730.98,475.90 729.22,485.40 724.39,500.00 C720.14,512.88 714.47,524.41 706.26,536.88 C702.83,542.09 700.27,546.61 700.57,546.91 C701.53,547.86 713.39,541.17 719.54,536.21 C732.89,525.46 742.46,509.37 746.69,490.60 C747.57,486.69 748.56,476.30 748.89,467.50 L 749.50 451.50 L 755.43 461.00 C765.98,477.93 775.98,501.40 781.06,521.20 C790.91,559.56 791.49,606.07 782.54,640.16 C773.21,675.67 753.94,706.91 726.01,731.80 L 716.53 740.25 L 705.27 728.58 C692.37,715.22 685.17,706.09 681.30,698.18 C679.04,693.56 678.60,691.35 678.62,684.58 C678.65,668.36 686.33,653.95 702.28,640.14 C720.48,624.38 735.23,607.31 739.97,596.50 C740.94,594.30 742.23,591.38 742.84,590.00 C743.72,588.02 743.80,588.84 743.23,594.00 C742.83,597.58 742.60,602.41 742.71,604.75 C742.82,607.09 742.46,609.00 741.91,609.00 C741.31,609.00 741.17,610.40 741.57,612.50 C742.01,614.89 741.85,616.00 741.04,616.00 C740.32,616.00 740.11,616.77 740.50,618.00 C740.89,619.23 740.68,620.00 739.95,620.00 C739.23,620.00 738.95,620.97 739.24,622.50 C739.51,623.88 739.34,625.00 738.86,625.00 C738.39,625.00 738.00,625.76 738.00,626.70 C738.00,632.65 728.24,656.96 721.47,667.85 C719.16,671.57 719.05,672.04 720.72,671.15 C721.79,670.57 725.43,667.16 728.79,663.56 C753.53,637.12 765.74,595.90 762.10,551.19 C760.01,525.61 759.40,524.45 754.13,536.16 C751.21,542.68 746.65,550.00 736.36,564.76 C734.35,567.66 732.62,569.91 732.52,569.76 C732.42,569.62 732.62,564.78 732.97,559.00 C733.32,553.22 733.56,548.41 733.52,548.30 C733.48,548.19 731.58,550.51 729.31,553.45 C723.03,561.56 707.32,574.75 689.05,587.25 C680.01,593.44 669.88,601.03 666.55,604.13 C654.32,615.51 649.22,628.94 650.30,646.91 C650.62,652.19 651.55,658.97 652.36,662.00 C653.17,665.02 653.70,667.63 653.54,667.80 C653.37,667.96 644.71,655.24 634.29,639.53 C616.24,612.30 615.27,611.04 613.68,612.81 C612.75,613.82 612.00,615.54 612.00,616.63 C612.00,617.71 611.44,619.16 610.75,619.85 C610.03,620.57 609.50,623.64 609.49,627.09 C609.48,631.27 609.04,633.36 608.02,633.99 C607.21,634.49 606.32,634.57 606.03,634.16 C605.74,633.76 604.62,633.45 603.55,633.47 C600.66,633.52 600.30,642.87 603.07,645.84 C604.13,646.98 605.00,648.17 605.00,648.48 C605.00,648.79 606.18,650.94 607.61,653.27 C614.04,663.67 606.30,652.98 597.28,639.00 C585.98,621.50 564.12,588.09 556.98,577.41 C554.38,573.51 551.75,569.40 551.14,568.26 C550.14,566.39 551.58,564.83 566.77,551.38 C575.97,543.24 591.15,529.57 600.50,521.02 C623.26,500.20 656.32,470.29 673.50,454.98 C681.20,448.11 687.72,442.27 688.00,442.00 C688.28,441.73 692.33,438.15 697.00,434.06 C701.67,429.97 706.16,426.03 706.96,425.31 C708.17,424.23 698.66,424.00 652.46,424.00 L 596.49 424.00 L 577.92 440.75 C567.70,449.96 547.05,468.75 532.02,482.50 C516.99,496.25 501.24,510.65 497.02,514.50 C492.80,518.35 483.44,527.01 476.22,533.75 C469.00,540.49 462.80,546.00 462.44,546.00 C462.08,546.00 462.06,545.28 462.40,544.39 C463.14,542.48 488.00,426.55 488.00,425.04 C488.00,424.33 467.87,424.00 424.75,424.00 L 361.50 424.01 L 364.50 426.52 C366.15,427.90 372.11,432.46 377.75,436.65 C383.39,440.84 388.00,445.00 388.00,445.89 C388.00,446.77 386.45,455.38 384.56,465.01 C372.53,526.30 343.35,684.07 340.09,705.50 C338.21,717.82 336.00,736.31 336.00,739.71 L 336.00 743.00 L 344.17 743.00 C354.16,743.00 354.20,743.80 344.22,744.09 C340.25,744.21 336.56,744.82 336.04,745.45 C334.84,746.90 337.07,751.40 340.58,754.66 C343.51,757.38 342.87,758.51 337.00,760.96 ZM 425.32 395.24 C443.02,395.38 464.02,395.35 472.00,395.17 L 486.50 394.84 L 491.73 389.17 C508.12,371.42 527.03,338.88 534.84,315.00 C541.12,295.82 542.17,289.82 542.72,269.99 C543.29,249.36 542.37,242.48 536.79,225.68 C532.86,213.83 529.97,207.36 524.23,197.50 C518.88,188.30 509.05,174.62 508.32,175.35 C508.05,175.62 508.42,178.46 509.15,181.67 C509.95,185.20 510.45,193.61 510.42,203.00 C510.37,221.57 508.34,231.43 501.03,248.50 C490.60,272.85 477.72,288.83 446.36,316.31 C417.54,341.56 404.39,360.38 394.67,390.24 L 393.13 394.97 ZM 534.14 797.96 C522.34,799.14 489.28,799.11 474.69,797.91 C452.66,796.09 428.51,791.60 407.50,785.40 C387.13,779.39 359.63,768.30 353.50,763.64 C351.70,762.27 355.48,762.11 391.73,762.04 C426.92,761.97 432.44,762.17 435.73,763.60 C437.81,764.50 441.98,765.76 445.00,766.39 C450.72,767.59 456.28,767.41 454.14,766.08 C453.25,765.54 455.00,752.38 461.01,714.43 C469.68,659.73 472.70,641.96 473.50,641.17 C473.77,640.89 474.00,641.23 474.00,641.92 C474.00,642.61 486.31,667.77 501.35,697.84 C516.39,727.90 529.77,755.57 531.10,759.32 C533.44,765.97 533.57,766.13 536.50,765.61 C549.56,763.27 559.06,762.96 604.50,763.41 C631.45,763.67 655.30,763.97 657.50,764.07 C661.47,764.26 661.42,764.30 651.93,768.88 C623.00,782.85 580.58,793.32 534.14,797.96 ZM 307.99 713.33 C311.00,715.35 313.76,717.00 314.11,717.00 C314.46,717.00 315.06,713.74 315.45,709.75 C315.83,705.76 319.09,684.95 322.69,663.50 C326.50,640.80 329.44,619.99 329.74,613.71 C330.58,596.25 327.53,582.04 319.42,565.66 C312.55,551.78 307.13,545.00 284.96,522.50 C264.85,502.09 255.12,489.94 251.08,480.20 C248.38,473.66 247.70,476.62 248.32,492.25 C249.46,521.13 256.13,542.15 271.47,565.26 C279.54,577.41 287.31,601.45 289.11,619.82 C290.20,630.95 290.18,631.18 287.95,633.55 C283.46,638.33 272.47,637.75 260.38,632.09 C256.87,630.45 254.00,629.20 254.00,629.32 C254.00,630.35 258.51,645.61 260.03,649.73 C263.17,658.24 269.40,669.97 276.13,680.05 C283.19,690.61 299.52,707.68 307.99,713.33 ZM 339.21 507.12 C346.02,516.16 346.14,516.15 347.47,506.00 C347.87,502.98 350.17,490.90 352.59,479.16 L 357.00 457.82 L 350.44 450.66 C346.84,446.72 342.23,441.02 340.20,438.00 L 336.50 432.50 L 335.50 451.50 L 334.00 445.50 C332.91,441.14 332.52,434.16 332.56,420.00 C332.61,400.47 333.73,391.87 338.19,376.66 C339.38,372.63 339.42,372.59 339.71,375.50 C340.13,379.65 341.74,385.58 344.07,391.51 L 346.04 396.53 L 360.77 396.16 C368.87,395.95 375.64,395.66 375.80,395.51 C375.97,395.35 373.86,391.78 371.11,387.57 C368.36,383.36 365.22,377.53 364.13,374.61 C357.16,356.00 357.13,325.89 364.05,312.89 C365.25,310.64 365.22,310.59 363.50,312.00 C359.13,315.58 343.11,335.33 337.15,344.49 C329.66,356.00 321.35,372.95 317.53,384.50 C312.80,398.81 310.67,414.59 311.38,430.00 C312.75,459.70 321.27,483.31 339.21,507.12 ZM 523.53 448.47 L 522.85 451.45 L 525.17 449.47 C527.09,447.84 555.27,420.99 577.89,399.25 C581.66,395.63 584.17,394.00 585.99,394.00 C589.33,394.00 592.65,390.46 597.37,381.90 C602.98,371.72 608.00,355.20 608.00,346.93 C608.00,345.32 608.37,344.00 608.82,344.00 C609.87,344.00 615.69,361.20 616.60,367.02 C616.99,369.48 617.67,371.74 618.11,372.03 C618.56,372.33 618.53,377.50 618.04,383.53 C617.56,389.56 617.36,394.69 617.59,394.92 C617.82,395.15 620.81,394.70 624.23,393.91 L 630.45 392.47 L 631.29 387.99 C632.56,381.20 631.35,361.52 629.10,352.40 C628.00,347.94 625.26,339.67 623.01,334.03 C616.68,318.15 614.03,307.82 613.33,296.35 C612.98,290.69 612.36,286.28 611.94,286.54 C611.52,286.79 608.40,293.64 605.00,301.75 C596.03,323.17 591.19,333.58 586.47,341.59 C578.09,355.81 565.75,369.39 552.21,379.30 C543.83,385.44 524.77,395.00 520.90,395.00 C519.30,395.00 518.00,395.34 518.00,395.75 C518.00,396.16 522.72,396.35 528.50,396.16 C534.27,395.97 539.00,396.17 539.00,396.61 C539.00,397.04 536.79,404.39 534.09,412.95 C528.72,429.97 524.60,443.84 523.53,448.47 ZM 664.46 551.26 C663.68,553.28 675.81,540.99 681.99,533.50 C692.49,520.77 701.88,502.15 706.45,484.98 C708.86,475.90 711.10,463.00 710.27,463.00 C709.62,463.00 678.67,490.52 676.50,493.03 C675.40,494.30 674.95,495.08 675.50,494.77 C676.10,494.42 676.56,496.15 676.65,499.10 C676.76,502.71 676.43,504.00 675.40,504.00 C674.63,504.00 673.99,503.44 673.98,502.75 C673.97,501.92 673.65,502.00 673.00,503.00 C672.23,504.20 672.00,504.00 671.90,502.00 C671.82,500.62 671.85,498.83 671.97,498.00 C672.10,496.98 671.83,496.82 671.12,497.51 C670.42,498.19 670.39,500.66 671.02,505.11 C672.66,516.71 669.66,537.84 664.46,551.26 ZM 703.31 386.60 C708.37,387.78 712.90,388.80 713.40,388.87 C713.91,388.94 714.05,385.21 713.72,380.25 C713.15,371.53 709.39,357.28 706.69,353.60 C705.46,351.91 705.22,352.27 704.18,357.46 C702.94,363.63 699.04,373.16 695.23,379.34 C693.92,381.46 693.14,383.48 693.49,383.83 C693.84,384.18 698.26,385.43 703.31,386.60 ZM 492.13 169.08 C494.07,170.28 494.56,169.51 494.53,165.33 C494.51,162.61 494.07,161.50 493.00,161.50 C491.06,161.50 490.32,167.96 492.13,169.08 ZM 527.44 174.90 C528.06,175.90 531.00,175.89 531.00,174.89 C531.00,173.68 529.11,172.81 527.98,173.51 C527.42,173.86 527.18,174.48 527.44,174.90 ZM 758.00 527.06 C758.00,527.58 758.45,528.00 759.00,528.00 C759.55,528.00 760.00,527.30 760.00,526.44 C760.00,525.58 759.55,525.16 759.00,525.50 C758.45,525.84 758.00,526.54 758.00,527.06 ZM 508.40 153.75 C510.20,155.86 511.00,156.46 511.00,155.65 C511.00,155.47 509.99,154.45 508.75,153.40 L 506.50 151.50 Z" fill="rgb(231,32,3)"/>
<path d="M 337.00 760.96 C342.87,758.51 343.51,757.38 340.58,754.66 C337.07,751.40 334.84,746.90 336.04,745.45 C336.56,744.82 340.25,744.21 344.22,744.09 C354.20,743.80 354.16,743.00 344.17,743.00 L 339.55 743.00 L 382.71 742.76 L 429.43 742.50 L 431.12 731.50 C435.45,703.37 447.16,632.26 447.79,630.28 C448.21,628.96 454.98,623.44 464.48,616.65 L 480.47 605.23 L 486.81 617.37 C490.30,624.04 496.36,635.58 500.28,643.00 C510.45,662.24 530.29,700.18 542.26,723.23 L 552.50 742.96 L 609.25 742.98 C641.15,742.99 666.00,742.62 666.00,742.12 C666.00,741.64 665.33,740.68 664.50,740.00 C663.67,739.32 663.00,738.14 663.00,737.38 C663.00,736.62 662.55,736.00 662.00,736.00 C661.45,736.00 661.00,735.33 661.00,734.50 C661.00,733.67 660.63,733.00 660.17,733.00 C658.95,733.00 652.96,724.37 653.68,723.66 C654.01,723.32 653.55,722.76 652.64,722.42 C651.74,722.07 651.00,721.16 651.00,720.39 C651.00,719.63 650.52,719.00 649.94,719.00 C649.36,719.00 649.13,718.60 649.44,718.10 C649.74,717.61 649.32,716.95 648.49,716.64 C647.67,716.32 647.00,715.41 647.00,714.61 C647.00,713.82 646.60,713.02 646.12,712.83 C644.95,712.39 629.81,689.00 630.70,689.00 C631.07,689.00 630.51,688.34 629.44,687.53 C628.37,686.72 627.82,686.05 628.20,686.03 C628.59,686.01 627.80,684.81 626.45,683.35 C625.10,681.90 624.00,680.14 624.00,679.44 C624.00,678.74 623.64,678.02 623.19,677.83 C622.19,677.42 617.13,669.73 614.69,664.94 C613.70,662.98 611.88,660.20 610.64,658.76 C609.56,657.51 605.78,651.99 601.75,645.83 C608.54,656.03 612.94,661.88 607.61,653.27 C606.18,650.94 605.00,648.79 605.00,648.48 C605.00,648.17 604.13,646.98 603.07,645.84 C600.30,642.87 600.66,633.52 603.55,633.47 C604.62,633.45 605.74,633.76 606.03,634.16 C606.32,634.57 607.21,634.49 608.02,633.99 C609.04,633.36 609.48,631.27 609.49,627.09 C609.50,623.64 610.03,620.57 610.75,619.85 C611.44,619.16 612.00,617.71 612.00,616.63 C612.00,615.54 612.75,613.82 613.68,612.81 C615.27,611.04 616.24,612.30 634.29,639.53 C642.13,651.35 648.98,661.48 651.95,665.70 C650.79,664.23 649.00,662.07 647.92,660.83 L 645.89 658.50 L 647.01 660.81 C647.96,662.77 647.74,663.65 645.59,666.47 C643.90,668.68 642.82,671.70 642.39,675.38 C641.76,680.73 641.90,681.22 646.09,687.72 C662.09,712.64 681.56,732.88 702.86,746.76 C711.52,752.41 725.87,760.00 727.88,760.00 C728.49,760.00 729.00,760.38 729.00,760.84 C729.00,761.30 731.14,761.80 733.75,761.95 C742.27,762.43 743.98,762.64 744.66,763.33 C745.03,763.70 726.64,764.00 703.80,764.00 L 662.26 764.00 L 651.88 768.91 C651.73,768.98 651.59,769.04 651.44,769.11 C651.61,769.04 651.77,768.96 651.93,768.88 C661.42,764.30 661.47,764.26 657.50,764.07 C655.30,763.97 631.45,763.67 604.50,763.41 C559.06,762.96 549.56,763.27 536.50,765.61 C533.57,766.13 533.44,765.97 531.10,759.32 C529.77,755.57 516.39,727.90 501.35,697.84 C486.31,667.77 474.00,642.61 474.00,641.92 C474.00,641.23 473.77,640.89 473.50,641.17 C472.70,641.96 469.68,659.73 461.01,714.43 C455.00,752.38 453.25,765.54 454.14,766.08 C456.28,767.41 450.72,767.59 445.00,766.39 C441.98,765.76 437.81,764.50 435.73,763.60 C432.44,762.17 426.92,761.97 391.73,762.04 C355.48,762.11 351.70,762.27 353.50,763.64 C354.03,764.04 354.72,764.49 355.55,764.98 L 351.93 763.00 L 309.27 763.00 L 319.19 762.76 C328.79,762.54 334.65,761.94 337.00,760.96 ZM 339.21 507.12 C321.27,483.31 312.75,459.70 311.38,430.00 C310.67,414.59 312.80,398.81 317.53,384.50 C321.35,372.95 329.66,356.00 337.15,344.49 C343.11,335.33 359.13,315.58 363.50,312.00 C365.22,310.59 365.25,310.64 364.05,312.89 C357.13,325.89 357.16,356.00 364.13,374.61 C365.22,377.53 368.36,383.36 371.11,387.57 C373.86,391.78 375.97,395.35 375.80,395.51 C375.64,395.66 368.87,395.95 360.77,396.16 L 346.04 396.53 L 344.07 391.51 C341.74,385.58 340.13,379.65 339.71,375.50 C339.42,372.59 339.38,372.63 338.19,376.66 C333.73,391.87 332.61,400.47 332.56,420.00 C332.52,434.16 332.91,441.14 334.00,445.50 L 335.50 451.50 L 336.50 432.50 L 340.20 438.00 C342.23,441.02 346.84,446.72 350.44,450.66 L 357.00 457.82 L 352.59 479.16 C350.17,490.90 347.87,502.98 347.47,506.00 C346.14,516.15 346.02,516.16 339.21,507.12 ZM 425.32 395.24 L 393.13 394.97 L 394.67 390.24 C404.39,360.38 417.54,341.56 446.36,316.31 C461.31,303.20 472.07,292.72 480.35,282.69 C477.85,285.96 475.04,289.53 471.85,293.50 L 468.63 297.50 L 473.37 293.00 C475.98,290.52 477.85,289.19 477.53,290.04 C477.08,291.23 477.75,291.64 480.42,291.82 C482.33,291.95 485.54,292.74 487.55,293.59 C489.56,294.43 492.18,295.04 493.36,294.95 C497.46,294.62 498.23,294.95 497.59,296.75 C497.25,297.71 499.02,296.25 501.54,293.50 C504.05,290.75 505.60,289.55 504.98,290.82 C502.45,296.03 481.85,315.68 464.74,329.20 C433.19,354.13 431.68,355.37 424.73,361.91 C416.78,369.39 408.07,380.03 407.51,382.94 C407.09,385.11 402.60,391.67 400.12,393.75 C398.91,394.76 404.94,395.00 430.88,395.00 L 463.15 395.00 L 468.09 389.59 C470.82,386.61 474.61,382.45 476.52,380.34 C486.69,369.13 506.70,335.14 510.89,321.96 C511.68,319.47 512.60,318.43 514.01,318.43 C515.10,318.43 516.00,318.81 516.00,319.28 C516.00,319.74 517.92,319.83 520.27,319.48 C523.83,318.95 524.86,319.19 526.42,320.92 C527.86,322.50 528.62,322.73 529.65,321.87 C531.44,320.39 531.36,321.01 529.01,326.96 C526.42,333.55 527.19,333.43 530.30,326.75 C533.30,320.31 537.23,308.36 540.05,297.14 C538.91,302.17 537.27,307.60 534.84,315.00 C527.03,338.88 508.12,371.42 491.73,389.17 L 486.50 394.84 L 472.00 395.17 C464.02,395.35 443.02,395.38 425.32,395.24 ZM 329.34 598.03 C328.76,595.79 328.39,599.67 327.96,612.27 C327.57,623.79 326.94,630.46 326.18,631.22 C325.27,632.13 325.00,631.71 325.00,629.45 C325.00,625.64 320.88,608.76 317.45,598.50 C314.06,588.37 307.11,574.78 301.13,566.59 C296.29,559.97 288.03,550.61 287.52,551.17 C287.35,551.35 288.07,554.65 289.12,558.50 C292.86,572.30 296.06,588.32 297.45,600.31 C299.04,613.93 300.34,642.84 299.08,636.50 C298.35,632.81 298.27,632.73 298.06,635.50 C297.94,637.15 297.62,637.83 297.34,637.00 C297.07,636.17 296.62,634.83 296.34,634.00 C295.96,632.85 295.31,633.17 293.55,635.36 L 291.26 638.21 L 291.11 630.92 C290.94,623.01 290.00,619.80 290.00,627.16 C290.00,628.00 289.94,628.79 289.81,629.52 C289.88,627.74 289.61,624.93 289.11,619.82 C287.31,601.45 279.54,577.41 271.47,565.26 C256.13,542.15 249.46,521.13 248.32,492.25 C247.70,476.62 248.38,473.66 251.08,480.20 C255.12,489.94 264.85,502.09 284.96,522.50 C307.13,545.00 312.55,551.78 319.42,565.66 C324.98,576.88 328.16,587.09 329.34,598.03 ZM 523.53 448.47 C524.60,443.84 528.72,429.97 534.09,412.95 C536.79,404.39 539.00,397.04 539.00,396.61 C539.00,396.17 534.27,395.97 528.50,396.16 C522.72,396.35 518.00,396.16 518.00,395.75 C518.00,395.34 519.30,395.00 520.90,395.00 C524.77,395.00 543.83,385.44 552.21,379.30 C565.75,369.39 578.09,355.81 586.47,341.59 C586.89,340.87 587.31,340.13 587.74,339.37 C584.30,345.64 581.09,350.47 577.41,355.19 C573.82,359.78 573.33,360.85 574.87,360.73 C575.92,360.66 576.62,360.12 576.43,359.55 C576.23,358.97 577.47,356.92 579.17,355.00 C580.87,353.08 582.04,352.18 581.76,353.01 C581.19,354.70 582.81,356.55 584.84,356.52 C585.58,356.51 587.23,355.20 588.50,353.61 C591.06,350.39 594.00,350.58 594.00,353.97 C594.00,357.02 595.66,356.41 596.88,352.92 C597.99,349.74 600.00,349.75 600.00,352.94 C600.00,355.16 602.49,360.18 603.22,359.44 C604.23,358.44 603.00,365.30 601.94,366.57 C601.35,367.28 600.69,369.33 600.46,371.12 C600.08,374.09 600.16,374.21 601.38,372.44 C601.88,371.71 602.43,370.55 603.00,369.11 C601.33,373.74 599.39,378.23 597.37,381.90 C592.65,390.46 589.33,394.00 585.99,394.00 C584.17,394.00 581.66,395.63 577.89,399.25 C555.27,420.99 527.09,447.84 525.17,449.47 L 522.85 451.45 ZM 683.10 591.41 C685.08,590.00 687.09,588.59 689.05,587.25 C707.32,574.75 723.03,561.56 729.31,553.45 C731.58,550.51 733.48,548.19 733.52,548.30 C733.56,548.41 733.32,553.22 732.97,559.00 C732.62,564.78 732.42,569.62 732.52,569.76 C732.62,569.91 734.35,567.66 736.36,564.76 C746.65,550.00 751.21,542.68 754.13,536.16 C759.40,524.45 760.01,525.61 762.10,551.19 C765.22,589.51 756.70,625.26 738.62,651.35 C738.75,651.15 738.86,650.96 738.96,650.78 L 741.31 646.50 L 738.90 648.70 L 736.48 650.89 L 736.63 643.20 C736.70,638.96 737.27,634.23 737.88,632.68 C738.50,631.14 738.97,629.11 738.94,628.18 C738.90,627.26 737.41,631.00 735.62,636.50 C732.43,646.32 726.77,658.97 722.13,666.76 C728.85,655.42 738.00,632.46 738.00,626.70 C738.00,625.76 738.39,625.00 738.86,625.00 C739.34,625.00 739.51,623.88 739.24,622.50 C738.95,620.97 739.23,620.00 739.95,620.00 C740.68,620.00 740.89,619.23 740.50,618.00 C740.11,616.77 740.32,616.00 741.04,616.00 C741.85,616.00 742.01,614.89 741.57,612.50 C741.17,610.40 741.31,609.00 741.91,609.00 C742.46,609.00 742.82,607.09 742.71,604.75 C742.60,602.41 742.83,597.58 743.23,594.00 C743.80,588.84 743.72,588.02 742.84,590.00 C742.23,591.38 740.94,594.30 739.97,596.50 C737.87,601.29 733.80,607.32 728.33,613.92 C730.97,610.62 733.05,607.60 734.48,605.00 C734.93,604.17 733.61,605.30 731.54,607.50 C729.47,609.70 728.31,610.74 728.96,609.81 C730.24,607.98 729.35,605.49 726.17,602.03 C725.25,601.02 723.45,599.04 722.16,597.61 C720.86,596.18 719.57,593.19 719.26,590.93 C718.85,587.83 718.15,586.63 716.36,585.95 C714.36,585.19 714.00,584.36 714.00,580.52 C714.00,578.01 713.53,576.00 712.94,576.00 C712.36,576.00 712.16,575.55 712.50,575.00 C712.84,574.45 712.46,574.00 711.65,574.00 C710.84,574.00 712.72,571.48 715.84,568.40 L 721.50 562.80 L 713.85 569.18 C709.65,572.69 698.65,580.72 689.41,587.03 C687.17,588.56 685.07,590.01 683.10,591.41 ZM 664.46 551.26 C669.66,537.84 672.66,516.71 671.02,505.11 C670.39,500.66 670.42,498.19 671.12,497.51 C671.83,496.82 672.10,496.98 671.97,498.00 C671.85,498.83 671.82,500.62 671.90,502.00 C672.00,504.00 672.23,504.20 673.00,503.00 C673.65,502.00 673.97,501.92 673.98,502.75 C673.99,503.44 674.63,504.00 675.40,504.00 C676.43,504.00 676.76,502.71 676.65,499.10 C676.56,496.15 676.10,494.42 675.50,494.77 C674.95,495.08 675.40,494.30 676.50,493.03 C678.67,490.52 709.62,463.00 710.27,463.00 C711.10,463.00 708.86,475.90 706.45,484.98 C701.88,502.15 692.49,520.77 681.99,533.50 C675.81,540.99 663.68,553.28 664.46,551.26 ZM 610.81 347.91 C611.62,349.88 612.62,352.66 613.84,356.25 C616.11,362.99 617.64,366.70 617.24,364.50 C616.39,359.75 616.45,355.54 617.51,347.71 C618.36,341.41 619.57,340.82 622.02,345.56 C624.78,350.92 625.17,351.34 626.02,349.96 C626.75,348.78 627.78,352.60 630.06,364.94 C630.75,368.63 630.81,368.17 630.38,362.50 C630.00,357.47 629.25,352.96 627.83,347.88 C628.35,349.59 628.79,351.14 629.10,352.40 C631.35,361.52 632.56,381.20 631.29,387.99 L 630.45 392.47 L 624.23 393.91 C620.81,394.70 617.82,395.15 617.59,394.92 C617.36,394.69 617.56,389.56 618.04,383.53 C618.53,377.50 618.56,372.33 618.11,372.03 C617.67,371.74 616.99,369.48 616.60,367.02 C615.97,362.95 612.94,353.34 610.81,347.91 ZM 703.31 386.60 C698.26,385.43 693.84,384.18 693.49,383.83 C693.14,383.48 693.92,381.46 695.23,379.34 C699.04,373.16 702.94,363.63 704.18,357.46 C705.22,352.27 705.46,351.91 706.69,353.60 C709.39,357.28 713.15,371.53 713.72,380.25 C714.05,385.21 713.91,388.94 713.40,388.87 C712.90,388.80 708.37,387.78 703.31,386.60 ZM 515.85 157.81 C512.76,155.14 512.10,155.17 515.51,159.26 C517.15,161.24 518.92,162.89 519.44,162.93 C520.60,163.02 525.00,167.09 525.00,168.07 C525.00,168.46 524.30,169.05 523.45,169.38 C522.59,169.71 522.14,169.58 522.44,169.10 C522.73,168.62 522.22,167.61 521.30,166.86 C519.87,165.71 519.74,165.71 520.46,166.90 C521.05,167.89 520.94,168.08 520.09,167.55 C519.41,167.14 519.13,166.10 519.45,165.26 C519.97,163.92 519.82,163.90 518.33,165.11 C517.39,165.87 516.93,165.98 517.31,165.34 C518.76,162.92 516.93,161.29 512.70,161.25 C506.30,161.18 506.18,161.14 505.48,158.92 C505.11,157.78 504.55,157.11 504.23,157.43 C503.91,157.76 502.60,157.04 501.32,155.83 C500.05,154.63 499.00,154.14 499.00,154.74 C499.00,156.11 495.73,155.69 495.25,154.25 C495.06,153.67 495.44,152.85 496.10,152.44 C496.87,151.96 497.05,152.11 496.60,152.85 C495.51,154.60 496.57,154.23 498.13,152.31 C499.06,151.16 499.10,150.86 498.25,151.37 C497.56,151.78 497.00,151.70 497.00,151.18 C497.00,149.72 499.59,147.93 500.50,148.76 C500.95,149.17 500.99,148.92 500.58,148.22 C500.17,147.51 501.31,147.82 503.10,148.92 C504.89,150.01 506.51,151.88 506.69,153.08 C506.99,155.02 506.83,155.12 505.26,153.93 C503.74,152.78 503.68,152.79 504.80,154.05 C505.52,154.85 506.53,155.56 507.05,155.62 C507.57,155.69 508.31,155.81 508.69,155.88 C509.07,155.94 508.51,156.70 507.44,157.56 C505.58,159.05 505.59,159.06 507.77,158.01 C509.02,157.40 510.55,157.22 511.18,157.61 C511.84,158.02 512.03,157.86 511.64,157.22 C511.27,156.63 511.44,155.85 512.02,155.49 C512.61,155.12 511.20,153.50 508.79,151.78 C506.43,150.09 503.69,147.87 502.69,146.84 C501.70,145.80 500.50,145.19 500.03,145.48 C499.56,145.77 499.02,145.56 498.83,145.00 C498.65,144.44 497.86,145.00 497.09,146.24 C495.80,148.31 495.82,148.38 497.34,147.13 C498.25,146.37 499.00,146.21 499.00,146.76 C499.00,148.25 496.23,150.26 495.11,149.57 C494.58,149.24 493.81,149.49 493.41,150.14 C492.96,150.87 493.12,151.04 493.85,150.60 C494.48,150.20 495.00,150.36 495.00,150.94 C495.00,151.52 494.30,152.00 493.44,152.00 C492.58,152.00 492.13,152.40 492.44,152.90 C492.74,153.39 492.32,154.05 491.49,154.36 C490.42,154.78 490.00,154.25 490.00,152.49 C490.00,150.99 489.04,149.42 487.50,148.41 C486.12,147.51 485.00,145.92 485.00,144.88 C485.00,143.85 484.57,143.00 484.05,143.00 C483.65,143.00 483.84,144.58 484.47,146.79 C483.91,145.19 483.39,144.06 482.98,143.63 C482.53,143.15 482.39,142.14 482.69,141.38 C482.98,140.62 482.69,140.00 482.05,140.00 C481.41,140.00 481.16,139.55 481.50,139.00 C481.84,138.45 481.72,138.00 481.23,138.00 C480.00,138.00 480.06,134.66 481.30,133.85 C481.85,133.49 483.14,133.99 484.18,134.95 C485.21,135.91 488.63,138.00 491.78,139.59 C498.12,142.80 506.92,149.61 515.85,157.81 ZM 284.58 651.55 C283.62,655.38 282.10,654.47 279.44,648.47 C276.68,642.23 276.33,639.00 278.42,639.00 C279.20,639.00 280.66,638.73 281.67,638.41 C282.88,638.01 283.09,638.11 282.28,638.70 C281.45,639.30 282.49,640.00 285.53,640.90 C290.69,642.42 291.48,644.98 287.60,647.53 C286.27,648.40 284.91,650.21 284.58,651.55 ZM 492.13 169.08 C490.32,167.96 491.06,161.50 493.00,161.50 C494.07,161.50 494.51,162.61 494.53,165.33 C494.56,169.51 494.07,170.28 492.13,169.08 ZM 522.50 395.02 C520.13,395.63 520.77,395.79 525.50,395.78 C528.80,395.77 530.71,395.56 529.74,395.31 C528.77,395.06 528.28,394.36 528.65,393.75 C529.11,393.02 528.71,392.92 527.41,393.45 C526.36,393.89 524.15,394.60 522.50,395.02 ZM 501.06 292.75 C500.02,293.99 498.91,295.00 498.59,295.00 C497.29,295.00 498.14,293.22 500.50,291.00 C503.41,288.26 503.80,289.47 501.06,292.75 ZM 484.78 213.18 C479.51,230.77 469.94,247.04 455.01,264.44 C469.26,247.84 479.23,230.61 484.78,213.18 ZM 527.44 174.90 C527.18,174.48 527.42,173.86 527.98,173.51 C529.11,172.81 531.00,173.68 531.00,174.89 C531.00,175.89 528.06,175.90 527.44,174.90 ZM 758.00 527.06 C758.00,526.54 758.45,525.84 759.00,525.50 C759.55,525.16 760.00,525.58 760.00,526.44 C760.00,527.30 759.55,528.00 759.00,528.00 C758.45,528.00 758.00,527.58 758.00,527.06 ZM 508.40 153.75 L 506.50 151.50 L 508.75 153.40 C509.99,154.45 511.00,155.47 511.00,155.65 C511.00,156.46 510.20,155.86 508.40,153.75 ZM 659.90 611.44 C661.82,608.90 664.04,606.47 666.55,604.13 C668.37,602.44 672.23,599.39 676.84,595.97 C669.08,601.80 663.72,606.64 659.90,611.44 ZM 534.43 218.87 C531.56,211.39 528.13,204.19 524.23,197.50 C528.77,205.30 531.53,210.97 534.43,218.87 ZM 611.76 783.70 C588.76,790.28 562.53,795.12 534.21,797.96 C562.21,795.15 588.76,790.23 611.76,783.70 ZM 485.29 149.34 C486.86,154.05 488.07,159.62 488.83,165.40 C488.01,159.97 486.61,153.77 485.29,149.34 ZM 327.59 632.04 C328.80,623.24 329.53,616.33 329.85,610.93 C329.82,611.85 329.79,612.77 329.74,613.71 C329.60,616.80 328.81,623.41 327.59,632.04 ZM 288.16 633.33 C286.65,635.22 284.19,636.34 280.76,636.72 C279.68,636.85 278.42,636.84 277.04,636.74 C281.85,636.99 285.71,635.94 287.95,633.55 C288.02,633.48 288.09,633.40 288.16,633.33 ZM 605.28 362.03 C606.78,356.56 607.98,350.44 608.00,347.04 C607.98,350.81 606.94,356.26 605.28,362.03 ZM 551.71 200.53 C557.02,209.40 560.91,217.83 564.31,227.58 C561.03,218.16 556.85,209.18 551.71,200.53 ZM 541.82 244.72 C541.73,244.17 541.63,243.66 541.54,243.18 C540.78,239.47 539.88,235.77 538.83,232.10 C540.22,236.73 541.18,240.68 541.82,244.72 ZM 650.27 646.34 C650.01,641.48 650.21,636.96 650.89,632.72 C650.30,636.85 650.10,641.56 650.27,646.34 ZM 548.07 194.70 C545.15,190.26 541.97,185.90 538.50,181.60 C541.20,184.89 543.63,188.10 545.68,191.11 C546.50,192.32 547.30,193.52 548.07,194.70 ZM 734.67 656.70 C732.80,659.09 730.84,661.38 728.79,663.56 C728.14,664.27 727.47,664.96 726.81,665.63 C729.40,662.91 732.30,659.63 734.67,656.70 ZM 264.93 634.00 C262.86,633.28 260.84,632.43 259.02,631.51 C258.61,631.30 258.22,631.11 257.84,630.92 C258.62,631.27 259.48,631.67 260.38,632.09 C261.92,632.81 263.44,633.45 264.93,634.00 ZM 580.08 612.54 C574.68,604.31 569.82,596.89 565.68,590.56 C569.96,597.06 575.04,604.82 580.08,612.54 ZM 358.49 766.60 C361.63,768.21 365.76,770.10 370.46,772.08 C365.47,770.00 361.25,768.09 358.49,766.60 ZM 550.99 567.92 C550.81,567.64 550.70,567.45 550.65,567.36 C550.57,567.23 550.77,566.87 551.22,566.30 C550.85,566.98 550.83,567.47 550.99,567.92 ZM 653.56 667.49 C653.54,667.15 653.44,666.58 653.29,665.83 C653.36,666.06 653.43,666.28 653.50,666.50 C653.75,667.26 653.79,667.60 653.56,667.49 ZM 608.00 346.91 C608.00,345.12 608.18,344.19 608.56,344.15 C608.24,344.54 608.00,345.63 608.00,346.91 ZM 542.78 255.45 C542.64,252.11 542.40,249.05 542.07,246.47 C542.44,249.28 542.67,252.19 542.78,255.45 ZM 254.00 629.32 C254.07,630.06 255.15,633.98 256.42,638.28 C255.11,633.85 254.00,629.83 254.00,629.32 C254.00,629.32 254.00,629.32 254.00,629.32 ZM 541.28 290.56 C541.55,288.72 541.78,286.73 541.98,284.64 C541.80,286.71 541.57,288.66 541.28,290.56 Z" fill="rgb(251,109,6)"/>
<path d="M 541.82 244.72 C541.91,245.30 541.99,245.88 542.07,246.47 C542.40,249.05 542.64,252.11 542.78,255.45 L 542.78 255.45 C542.92,259.57 542.88,264.25 542.72,269.99 C542.56,275.85 542.35,280.50 541.98,284.64 C541.98,284.66 541.98,284.68 541.98,284.70 C541.77,286.77 541.54,288.74 541.28,290.56 C540.96,292.76 540.55,294.91 540.05,297.14 C537.23,308.36 533.30,320.31 530.30,326.75 C527.19,333.43 526.42,333.55 529.01,326.96 C531.36,321.01 531.44,320.39 529.65,321.87 C528.62,322.73 527.86,322.50 526.42,320.92 C524.86,319.19 523.83,318.95 520.27,319.48 C517.92,319.83 516.00,319.74 516.00,319.28 C516.00,318.81 515.10,318.43 514.01,318.43 C512.60,318.43 511.68,319.47 510.89,321.96 C506.70,335.14 486.69,369.13 476.52,380.34 C474.61,382.45 470.82,386.61 468.09,389.59 L 463.15 395.00 L 430.88 395.00 C404.94,395.00 398.91,394.76 400.12,393.75 C402.60,391.67 407.09,385.11 407.51,382.94 C408.07,380.03 416.78,369.39 424.73,361.91 C431.68,355.37 433.19,354.13 464.74,329.20 C481.85,315.68 502.45,296.03 504.98,290.82 C505.60,289.55 504.05,290.75 501.54,293.50 C499.02,296.25 497.25,297.71 497.59,296.75 C498.23,294.95 497.46,294.62 493.36,294.95 C492.18,295.04 489.56,294.43 487.55,293.59 C485.54,292.74 482.33,291.95 480.42,291.82 C477.75,291.64 477.08,291.23 477.53,290.04 C477.85,289.19 475.98,290.52 473.37,293.00 L 468.63 297.50 L 471.85 293.50 C475.04,289.53 477.85,285.96 480.35,282.69 C489.44,271.69 495.57,261.24 501.03,248.50 C508.34,231.43 510.37,221.57 510.42,203.00 C510.45,193.61 509.95,185.20 509.15,181.67 C508.42,178.46 508.05,175.62 508.32,175.35 C509.05,174.62 518.88,188.30 524.23,197.50 C528.13,204.19 531.56,211.39 534.43,218.87 L 534.43 218.87 C535.19,220.96 535.97,223.21 536.79,225.68 C537.56,227.99 538.24,230.11 538.83,232.10 C539.88,235.77 540.78,239.47 541.54,243.18 C541.63,243.66 541.73,244.17 541.82,244.72 ZM 683.10 591.41 L 683.11 591.40 C685.08,590.01 687.18,588.55 689.41,587.03 C698.65,580.72 709.65,572.69 713.85,569.18 L 721.50 562.80 L 715.84 568.40 C712.72,571.48 710.84,574.00 711.65,574.00 C712.46,574.00 712.84,574.45 712.50,575.00 C712.16,575.55 712.36,576.00 712.94,576.00 C713.53,576.00 714.00,578.01 714.00,580.52 C714.00,584.36 714.36,585.19 716.36,585.95 C718.15,586.63 718.85,587.83 719.26,590.93 C719.57,593.19 720.86,596.18 722.16,597.61 C723.45,599.04 725.25,601.02 726.17,602.03 C729.35,605.49 730.24,607.98 728.96,609.81 C728.31,610.74 729.47,609.70 731.54,607.50 C733.61,605.30 734.93,604.17 734.48,605.00 C733.05,607.60 730.97,610.62 728.33,613.92 C721.47,622.20 712.41,631.37 702.28,640.14 C686.33,653.95 678.65,668.36 678.62,684.58 C678.60,691.35 679.04,693.56 681.30,698.18 C685.17,706.09 692.37,715.22 705.27,728.58 L 716.53 740.25 L 716.97 739.85 L 725.73 747.66 C730.57,751.97 736.03,756.62 737.85,758.00 C738.60,758.56 739.31,759.07 739.95,759.54 C741.94,760.97 743.29,761.94 743.15,762.60 C743.15,762.64 743.13,762.67 743.12,762.71 C741.69,762.44 739.03,762.24 733.75,761.95 C731.14,761.80 729.00,761.30 729.00,760.84 C729.00,760.38 728.49,760.00 727.88,760.00 C725.87,760.00 711.52,752.41 702.86,746.76 C681.56,732.88 662.09,712.64 646.09,687.72 C641.90,681.22 641.76,680.73 642.39,675.38 C642.82,671.70 643.90,668.68 645.59,666.47 C647.74,663.65 647.96,662.77 647.01,660.81 L 645.89 658.50 L 647.92 660.83 C649.00,662.07 650.79,664.23 651.95,665.70 C652.93,667.09 653.50,667.84 653.54,667.80 C653.57,667.77 653.57,667.66 653.56,667.49 C653.79,667.60 653.75,667.26 653.50,666.50 C653.43,666.28 653.36,666.06 653.29,665.83 C653.07,664.80 652.75,663.45 652.36,662.00 C651.55,658.97 650.62,652.19 650.30,646.91 C650.29,646.72 650.28,646.53 650.27,646.34 C650.10,641.56 650.30,636.84 650.89,632.72 C652.16,624.73 655.12,617.75 659.90,611.44 C663.72,606.64 669.08,601.80 676.84,595.97 C678.82,594.49 680.94,592.95 683.10,591.41 ZM 307.99 713.33 C299.52,707.68 283.19,690.61 276.13,680.05 C269.40,669.97 263.17,658.24 260.03,649.73 C259.26,647.66 257.74,642.76 256.42,638.28 C255.15,633.98 254.07,630.06 254.00,629.32 C254.09,629.27 255.65,629.93 257.84,630.92 C258.22,631.11 258.61,631.30 259.02,631.51 C260.84,632.43 262.86,633.28 264.93,634.00 C269.31,635.63 273.44,636.55 277.04,636.74 C278.42,636.84 279.68,636.85 280.76,636.72 C284.19,636.34 286.65,635.22 288.16,633.33 C289.22,632.18 289.72,631.49 289.81,629.52 C289.94,628.79 290.00,628.00 290.00,627.16 C290.00,619.80 290.94,623.01 291.11,630.92 L 291.26 638.21 L 293.55 635.36 C295.31,633.17 295.96,632.85 296.34,634.00 C296.62,634.83 297.07,636.17 297.34,637.00 C297.62,637.83 297.94,637.15 298.06,635.50 C298.27,632.73 298.35,632.81 299.08,636.50 C300.34,642.84 299.04,613.93 297.45,600.31 C296.06,588.32 292.86,572.30 289.12,558.50 C288.07,554.65 287.35,551.35 287.52,551.17 C288.03,550.61 296.29,559.97 301.13,566.59 C307.11,574.78 314.06,588.37 317.45,598.50 C320.88,608.76 325.00,625.64 325.00,629.45 C325.00,631.71 325.27,632.13 326.18,631.22 C326.94,630.46 327.57,623.79 327.96,612.27 C328.39,599.67 328.76,595.79 329.34,598.03 C329.79,602.19 329.95,606.46 329.85,610.93 C329.53,616.33 328.80,623.24 327.59,632.04 C326.33,640.94 324.62,651.98 322.69,663.50 C319.09,684.95 315.83,705.76 315.45,709.75 C315.06,713.74 314.46,717.00 314.11,717.00 C313.76,717.00 311.00,715.35 307.99,713.33 ZM 610.81 347.91 C609.89,345.56 609.13,344.00 608.82,344.00 C608.73,344.00 608.64,344.05 608.56,344.15 C608.18,344.19 608.00,345.12 608.00,346.89 L 608.00 346.91 L 608.00 346.93 C608.00,346.97 608.00,347.00 608.00,347.04 L 608.00 347.04 C607.98,350.45 606.78,356.56 605.28,362.03 C604.61,364.37 603.84,366.75 603.00,369.11 C602.43,370.55 601.88,371.71 601.38,372.44 C600.16,374.21 600.08,374.09 600.46,371.12 C600.69,369.33 601.35,367.28 601.94,366.57 C603.00,365.30 604.23,358.44 603.22,359.44 C602.49,360.18 600.00,355.16 600.00,352.94 C600.00,349.75 597.99,349.74 596.88,352.92 C595.66,356.41 594.00,357.02 594.00,353.97 C594.00,350.58 591.06,350.39 588.50,353.61 C587.23,355.20 585.58,356.51 584.84,356.52 C582.81,356.55 581.19,354.70 581.76,353.01 C582.04,352.18 580.87,353.08 579.17,355.00 C577.47,356.92 576.23,358.97 576.43,359.55 C576.62,360.12 575.92,360.66 574.87,360.73 C573.33,360.85 573.82,359.78 577.41,355.19 C581.09,350.47 584.30,345.64 587.74,339.37 C592.09,331.63 596.84,321.25 605.00,301.75 C608.40,293.64 611.52,286.79 611.94,286.54 C612.36,286.28 612.98,290.69 613.33,296.35 C614.03,307.82 616.68,318.15 623.01,334.03 C624.63,338.09 626.50,343.50 627.83,347.88 C629.25,352.96 630.00,357.47 630.38,362.50 C630.81,368.17 630.75,368.63 630.06,364.94 C627.78,352.60 626.75,348.78 626.02,349.96 C625.17,351.34 624.78,350.92 622.02,345.56 C619.57,340.82 618.36,341.41 617.51,347.71 C616.45,355.54 616.39,359.75 617.24,364.50 C617.64,366.70 616.11,362.99 613.84,356.25 C612.62,352.66 611.62,349.88 610.81,347.91 ZM 734.67 656.70 L 734.67 656.71 C732.30,659.63 729.40,662.91 726.81,665.63 C724.11,668.38 721.59,670.69 720.72,671.15 C719.05,672.04 719.16,671.57 721.47,667.85 C721.69,667.50 721.91,667.13 722.13,666.76 L 722.14 666.75 C726.78,658.96 732.43,646.31 735.62,636.50 C737.41,631.00 738.90,627.26 738.94,628.18 C738.97,629.11 738.50,631.14 737.88,632.68 C737.27,634.23 736.70,638.96 736.63,643.20 L 736.48 650.89 L 738.90 648.70 L 741.31 646.50 L 738.96 650.78 C738.86,650.96 738.75,651.15 738.62,651.35 C737.35,653.18 736.04,654.97 734.67,656.70 ZM 284.58 651.55 C284.91,650.21 286.27,648.40 287.60,647.53 C291.48,644.98 290.69,642.42 285.53,640.90 C282.49,640.00 281.45,639.30 282.28,638.70 C283.09,638.11 282.88,638.01 281.67,638.41 C280.66,638.73 279.20,639.00 278.42,639.00 C276.33,639.00 276.68,642.23 279.44,648.47 C282.10,654.47 283.62,655.38 284.58,651.55 ZM 522.50 395.02 C524.15,394.60 526.36,393.89 527.41,393.45 C528.71,392.92 529.11,393.02 528.65,393.75 C528.28,394.36 528.77,395.06 529.74,395.31 C530.71,395.56 528.80,395.77 525.50,395.78 C520.77,395.79 520.13,395.63 522.50,395.02 ZM 501.06 292.75 C503.80,289.47 503.41,288.26 500.50,291.00 C498.14,293.22 497.29,295.00 498.59,295.00 C498.91,295.00 500.02,293.99 501.06,292.75 ZM 775.40 503.00 C770.04,488.13 762.87,472.94 755.43,461.00 C763.51,473.96 770.19,488.05 775.40,503.00 ZM 756.91 696.67 C768.54,679.54 777.15,660.62 782.50,640.31 C778.17,657.20 771.53,672.85 762.21,688.50 C760.64,691.13 758.86,693.87 756.91,696.67 ZM 716.48 763.97 C726.24,763.92 734.37,763.81 739.36,763.66 C735.51,763.96 728.40,763.97 716.48,763.97 ZM 718.87 738.17 L 726.01 731.80 C727.80,730.20 729.56,728.58 731.28,726.94 C728.07,730.11 724.85,733.08 721.72,735.75 Z" fill="rgb(253,186,12)"/>
</g>
</svg>